<svg width="17" height="17" viewBox="0 0 17 17" fill="none" xmlns="http://www.w3.org/2000/svg">
<circle cx="8.5" cy="8.5" r="8.5" fill="#0015B5"/>
<path d="M8.9541 11.7271L9.11709 10.7174L12.7147 7.01641L12.7306 6.97268H9.84456L10.0711 5.62109H15.0005L14.8256 6.72224L11.4188 10.3318L11.4029 10.3755H14.3127L14.0941 11.7271H8.9541Z" fill="white"/>
<path d="M4.27782 8.19723L3.68948 11.7273H2L3.35159 3.58594H4.99337L4.48454 6.69856H4.55211C4.74823 6.33814 5.01722 6.0559 5.35909 5.85183C5.70096 5.64512 6.10511 5.54176 6.57154 5.54176C6.99557 5.54176 7.34937 5.63452 7.63294 5.82003C7.91916 6.00289 8.1219 6.26659 8.24115 6.61111C8.36041 6.95298 8.38029 7.36243 8.30078 7.83946L7.64884 11.7273H5.95936L6.55564 8.14158C6.6166 7.76526 6.56757 7.47241 6.40856 7.26305C6.2522 7.05369 6.00308 6.949 5.66121 6.949C5.43065 6.949 5.21863 6.99803 5.02517 7.09609C4.83171 7.19415 4.66872 7.33725 4.53621 7.52542C4.40636 7.71093 4.32022 7.93487 4.27782 8.19723Z" fill="white"/>
</svg>
